<?xml version="1.0" encoding="UTF-8"?>
<!-- Generator: visioncortex VTracer 0.6.12 -->
<svg version="1.1" xmlns="http://www.w3.org/2000/svg" width="400" height="606">
<path d="M0 0 C132 0 264 0 400 0 C400 199.98 400 399.96 400 606 C268 606 136 606 0 606 C0 406.02 0 206.04 0 0 Z " fill="#FFFFFF" transform="translate(0,0)"/>
<path d="M0 0 C1.563 1.438 1.563 1.438 2.562 4.5 C2.562 12.366 -1.342 17.969 -6.574 23.582 C-10.97 27.959 -14.61 31.185 -20.438 33.438 C-16.75 33.467 -13.063 33.484 -9.375 33.5 C-8.856 33.504 -8.856 33.504 -6.229 33.525 C-0.85 33.542 4.266 33.392 9.562 32.438 C7.681 39.715 5.138 45.633 -1.477 49.688 C-6.902 52.295 -12.519 53.499 -18.438 54.438 C-13.19 60.505 -7.339 62.45 0.562 63.438 C-0.935 67.391 -3.149 68.868 -6.688 71.062 C-7.621 71.653 -8.554 72.243 -9.516 72.852 C-12.437 74.437 -15.258 75.488 -18.438 76.438 C-19.09 85.689 -18.004 91.45 -13.438 99.438 C-9.876 108.257 -10.326 118.292 -13.375 127.188 C-18.816 139.805 -29.42 148.116 -41.777 153.402 C-48.709 156.1 -55.032 156.711 -62.438 156.438 C-62.107 158.748 -61.778 161.058 -61.438 163.438 C-60.562 163.543 -59.687 163.649 -58.785 163.758 C-47.676 166.013 -38.68 175.125 -30.438 182.438 C-29.661 183.103 -28.885 183.768 -28.086 184.453 C-24.228 187.76 -20.505 191.17 -16.984 194.836 C-15.691 196.175 -14.322 197.442 -12.938 198.688 C-11.071 202.109 -11.724 202.684 -12.688 206.312 C-13.168 209.627 -13.083 211.565 -11.061 214.296 C-7.21 218.408 -2.942 222.05 1.396 225.637 C4.278 228.032 7.078 230.516 9.882 233.002 C12.625 235.345 15.498 236.954 18.773 238.441 C28.437 242.946 35.486 248.416 39.562 258.438 C41.421 264.012 41.369 269.38 38.875 274.75 C36.378 279.195 33.434 281.814 28.562 283.438 C20.669 284.611 15.549 283.087 9.074 278.496 C4.11 274.428 0.235 270.417 -2.062 264.375 C-4.4 259.32 -8.778 257.847 -13.59 255.492 C-18.852 252.819 -23.517 249.276 -28.26 245.788 C-33.119 242.249 -38.123 239.246 -43.438 236.438 C-42.821 246.972 -41.414 257.319 -39.875 267.75 C-39.638 269.377 -39.402 271.004 -39.166 272.631 C-38.594 276.567 -38.017 280.502 -37.438 284.438 C-44.264 287.426 -50.893 290.125 -58.188 291.688 C-58.877 291.847 -59.567 292.007 -60.277 292.172 C-85.584 297.87 -117.468 296.633 -140.438 283.438 C-139.266 280.415 -138.002 277.449 -136.668 274.496 C-129.911 259.337 -125.679 243.897 -123.438 227.438 C-126.581 228.644 -129.5 229.985 -132.438 231.625 C-135.11 232.979 -136.193 233.448 -139.25 233.312 C-141.438 232.438 -141.438 232.438 -144.438 230.438 C-144.691 231.158 -144.945 231.879 -145.207 232.621 C-146.526 235.64 -148.121 237.89 -150.125 240.5 C-161.834 256.362 -161.834 256.362 -161.938 262.5 C-161.438 265.437 -161.438 265.437 -160.438 268.438 C-160.088 274.138 -160.478 279.756 -161.234 285.406 C-161.438 287.437 -161.438 287.437 -161.188 290.688 C-161.438 293.438 -161.438 293.438 -163.688 296.312 C-166.438 298.438 -166.438 298.438 -170.438 298.438 C-170.69 299.27 -170.943 300.103 -171.203 300.961 C-172.583 304.846 -174.31 308.4 -176.188 312.062 C-176.901 313.471 -177.615 314.88 -178.328 316.289 C-178.682 316.984 -179.036 317.679 -179.4 318.396 C-180.927 321.402 -182.432 324.42 -183.938 327.438 C-184.771 329.104 -185.604 330.771 -186.438 332.438 C-186.1 332.613 -186.1 332.613 -184.391 333.504 C-178.486 336.772 -174.83 339.02 -172.438 345.438 C-171.345 352.877 -173.729 358.629 -176.75 365.312 C-176.986 365.851 -176.986 365.851 -178.178 368.576 C-179.271 371.067 -180.371 373.554 -181.48 376.038 C-183.327 380.18 -185.149 384.332 -186.968 388.487 C-189.078 393.306 -191.195 398.122 -193.312 402.938 C-193.726 403.878 -194.14 404.819 -194.566 405.788 C-195.767 408.516 -196.973 411.243 -198.18 413.969 C-198.535 414.775 -198.89 415.582 -199.255 416.413 C-201.117 420.608 -203.043 424.769 -205.043 428.9 C-205.241 429.31 -205.241 429.31 -206.243 431.381 C-208.205 434.759 -210.601 435.859 -214.199 436.992 C-217.064 437.562 -219.769 437.532 -222.688 437.5 C-223.765 437.491 -224.843 437.482 -225.953 437.473 C-226.773 437.461 -227.593 437.449 -228.438 437.438 C-226.787 438.098 -225.137 438.757 -223.438 439.438 C-223.438 442.408 -223.438 445.378 -223.438 448.438 C-218.016 448.463 -212.594 448.481 -207.172 448.492 C-205.334 448.497 -203.496 448.504 -201.659 448.513 C-190.535 448.565 -179.526 448.381 -168.438 447.438 C-169.077 446.773 -169.717 446.108 -170.376 445.423 C-177.798 437.633 -182.831 430.358 -183.438 419.438 C-182.238 421.237 -181.059 423.051 -179.922 424.891 C-173.94 434.537 -168.203 442.744 -157.438 447.438 C-150.811 448.509 -144.084 448.599 -137.387 448.643 C-136.435 448.653 -135.484 448.663 -134.503 448.673 C-131.377 448.704 -128.251 448.729 -125.125 448.754 C-122.911 448.775 -120.698 448.796 -118.484 448.817 C-113.838 448.861 -109.191 448.902 -104.544 448.94 C-96.402 449.008 -88.26 449.085 -80.118 449.164 C-74.49 449.217 -68.861 449.262 -63.232 449.29 C-61.053 449.301 -58.874 449.313 -56.695 449.325 C-55.644 449.33 -54.593 449.336 -53.509 449.342 C-47.807 449.382 -42.113 449.489 -36.414 449.693 C-33.263 449.804 -30.112 449.884 -26.96 449.961 C-25.56 450.004 -24.16 450.064 -22.761 450.142 C-15.053 450.57 -10.373 450.04 -4.258 445.095 C-2.624 443.571 -1.014 442.021 0.562 440.438 C1.722 439.392 2.886 438.351 4.059 437.32 C5.042 436.404 6.023 435.485 7 434.562 C8.101 433.535 9.203 432.508 10.305 431.48 C10.847 430.973 11.389 430.466 11.948 429.943 C14.982 427.114 18.047 424.318 21.109 421.519 C23.625 419.218 26.134 416.909 28.629 414.586 C31.582 411.841 34.564 409.132 37.562 406.438 C38.019 406.024 38.019 406.024 40.328 403.934 C40.759 403.563 40.759 403.563 42.938 401.688 C43.688 401.033 44.438 400.378 45.211 399.703 C48.343 398.017 50.195 398.564 53.562 399.438 C54.526 402.491 54.819 403.906 53.402 406.84 C44.346 418.909 33.492 429.229 21.562 438.438 C20.407 439.337 19.253 440.237 18.098 441.137 C9.453 447.844 9.453 447.844 5.562 450.438 C6.305 450.485 7.047 450.533 7.811 450.583 C14.842 451.037 21.874 451.493 28.905 451.95 C32.518 452.185 36.132 452.42 39.746 452.653 C43.241 452.878 46.736 453.106 50.231 453.334 C52.197 453.462 54.163 453.588 56.129 453.714 C62.956 454.162 69.761 454.692 76.562 455.438 C76.562 455.767 76.562 456.098 76.562 456.438 C72.348 457.237 68.371 457.563 64.084 457.563 C63.438 457.565 63.438 457.565 60.167 457.571 C58.74 457.569 57.313 457.567 55.886 457.564 C54.365 457.566 52.843 457.567 51.322 457.569 C47.143 457.573 42.965 457.571 38.787 457.568 C34.28 457.566 29.773 457.569 25.265 457.572 C16.436 457.577 7.607 457.576 -1.222 457.573 C-8.398 457.571 -15.574 457.57 -22.75 457.571 C-23.771 457.571 -24.792 457.572 -25.844 457.572 C-27.918 457.572 -29.992 457.572 -32.067 457.573 C-51.522 457.576 -70.977 457.572 -90.432 457.567 C-107.125 457.562 -123.817 457.563 -140.51 457.568 C-159.892 457.573 -179.274 457.575 -198.656 457.572 C-200.723 457.572 -202.79 457.572 -204.857 457.571 C-205.874 457.571 -206.891 457.571 -207.939 457.571 C-215.105 457.57 -222.271 457.571 -229.438 457.574 C-238.173 457.577 -246.908 457.576 -255.643 457.571 C-260.1 457.568 -264.556 457.567 -269.013 457.57 C-273.094 457.573 -277.175 457.572 -281.256 457.566 C-282.731 457.565 -284.206 457.566 -285.681 457.568 C-292.684 457.579 -299.514 457.548 -306.438 456.438 C-306.438 456.108 -306.438 455.777 -306.438 455.438 C-297.681 453.964 -288.994 452.969 -280.137 452.367 C-278.934 452.281 -277.732 452.195 -276.493 452.107 C-272.704 451.837 -268.915 451.575 -265.125 451.312 C-262.534 451.129 -259.944 450.946 -257.354 450.762 C-251.049 450.315 -244.743 449.874 -238.438 449.438 C-238.449 448.667 -238.461 447.896 -238.473 447.102 C-238.482 446.099 -238.491 445.096 -238.5 444.062 C-238.512 443.065 -238.523 442.067 -238.535 441.039 C-238.438 438.438 -238.438 438.438 -237.438 436.438 C-238.705 436.193 -239.972 435.948 -241.277 435.695 C-246.768 434.475 -251.817 432.465 -257 430.312 C-257.913 429.94 -258.827 429.567 -259.768 429.184 C-261.994 428.275 -264.217 427.359 -266.438 426.438 C-266.511 426.814 -266.511 426.814 -266.881 428.72 C-267.567 432.068 -268.456 435.333 -269.375 438.625 C-269.714 439.856 -270.053 441.087 -270.402 442.355 C-271.438 445.438 -271.438 445.438 -273.438 447.438 C-276.188 448 -276.188 448 -279.438 447.438 C-283.339 444.454 -285.242 441.592 -286.062 436.75 C-285.333 432.884 -284.586 431.735 -281.438 429.438 C-280.592 429.108 -279.746 428.777 -278.875 428.438 C-276.001 427.259 -275.179 425.941 -273.438 423.438 C-274.041 423.086 -274.644 422.734 -275.266 422.371 C-280.735 418.992 -284.008 416.458 -286.438 410.438 C-287.664 403.489 -284.254 397.619 -281.438 391.438 C-278.869 385.761 -276.459 380.051 -274.188 374.25 C-270.318 364.517 -266.346 354.826 -262.325 345.155 C-261.612 343.435 -260.902 341.714 -260.197 339.991 C-259.19 337.534 -258.169 335.083 -257.145 332.633 C-256.846 331.896 -256.547 331.159 -256.239 330.4 C-253.992 325.084 -251.334 320.316 -246.359 317.09 C-234.748 313.149 -219.915 321.18 -209.123 325.333 C-203.649 327.42 -198.129 329.063 -192.438 330.438 C-192.312 330.03 -192.312 330.03 -191.68 327.965 C-190.226 323.836 -188.441 319.949 -186.562 316 C-186.393 315.637 -186.393 315.637 -185.535 313.803 C-183.367 309.216 -181.008 304.812 -178.438 300.438 C-183.347 298.26 -188.269 296.409 -193.375 294.75 C-194.059 294.525 -194.743 294.3 -195.447 294.068 C-197.11 293.522 -198.774 292.979 -200.438 292.438 C-200.702 293.137 -200.966 293.837 -201.238 294.559 C-202.972 298.721 -205.157 302.63 -207.293 306.598 C-208.438 309.438 -208.438 309.438 -208.391 311.629 C-207.071 314.134 -205.447 314.926 -203 316.312 C-199.62 318.416 -198.599 319.088 -196.875 322.812 C-196.731 323.679 -196.586 324.545 -196.438 325.438 C-200.4 325.697 -202.627 325.072 -206.062 323.125 C-211.338 320.328 -216.643 318.792 -222.438 317.438 C-221.398 315.012 -220.449 313.449 -218.534 311.602 C-216.363 309.361 -215.084 307.314 -213.641 304.559 C-213.157 303.638 -212.674 302.717 -212.176 301.768 C-211.685 300.813 -211.194 299.858 -210.688 298.875 C-210.181 297.917 -209.674 296.958 -209.152 295.971 C-205.438 288.826 -205.438 288.826 -205.438 285.438 C-207.937 283.25 -207.937 283.25 -210.438 281.438 C-209.621 275.355 -208.038 271.29 -204.148 266.547 C-201.638 263.452 -199.471 260.135 -197.246 256.832 C-195.438 254.438 -195.438 254.438 -192.902 252.172 C-189.725 248.647 -188.833 245.37 -187.562 240.875 C-184.672 231.543 -180.681 223.777 -174.84 215.91 C-173.935 214.69 -173.03 213.47 -172.125 212.25 C-171.678 211.652 -171.232 211.055 -170.772 210.439 C-168.461 207.242 -166.972 204.82 -166.625 200.875 C-165.4 191.723 -152.977 183.602 -146.062 178.188 C-131.845 167.439 -117.086 159.606 -99.438 156.438 C-99.788 148.087 -99.788 148.087 -102.5 145.375 C-103.139 145.066 -103.779 144.756 -104.438 144.438 C-105.18 145.283 -105.923 146.129 -106.688 147 C-109.438 149.438 -109.438 149.438 -111.375 149.5 C-114.225 148.032 -116.819 146.282 -119.438 144.438 C-119.438 145.097 -119.438 145.757 -119.438 146.438 C-121.5 148.188 -121.5 148.188 -124.438 149.438 C-128.053 149.05 -130.408 148.493 -132.996 145.84 C-136.438 141.248 -136.438 141.248 -136.438 137.438 C-137.078 137.726 -137.719 138.015 -138.379 138.312 C-143.663 140.58 -147.682 142.037 -153.438 141.438 C-154.097 141.107 -154.757 140.778 -155.438 140.438 C-155.816 134.507 -154.543 129.965 -152.438 124.438 C-153.006 124.666 -153.574 124.894 -154.16 125.129 C-159.459 127.102 -162.918 127.729 -168.438 126.438 C-168.438 125.778 -168.438 125.118 -168.438 124.438 C-167.681 123.743 -166.924 123.048 -166.145 122.332 C-162.86 118.82 -161.644 115.611 -160.125 111.125 C-159.993 110.755 -159.993 110.755 -159.326 108.881 C-158.684 107.071 -158.059 105.255 -157.438 103.438 C-158.118 103.726 -158.799 104.015 -159.5 104.312 C-165.869 106.752 -171.371 107.759 -178.125 107.688 C-178.498 107.691 -178.498 107.691 -180.385 107.711 C-184.211 107.697 -187.197 107.592 -190.438 105.438 C-190.144 99.425 -187.484 96.54 -183.438 92.438 C-180.805 90.155 -178.052 88.069 -175.25 86 C-174.498 85.436 -173.746 84.872 -172.972 84.29 C-170.8 82.664 -168.62 81.05 -166.438 79.438 C-165.404 78.667 -164.37 77.896 -163.305 77.102 C-151.761 68.587 -139.65 60.946 -127.438 53.438 C-127.126 53.246 -127.126 53.246 -125.55 52.277 C-110.86 43.277 -95.832 34.97 -80.361 27.392 C-78.495 26.466 -76.644 25.514 -74.797 24.551 C-18.985 -4.381 -18.985 -4.381 0 0 Z " fill="#0D1B3E" transform="translate(314.4375,123.5625)"/>
<path d="M0 0 C1.548 2.391 2.912 4.743 4.25 7.25 C4.673 8.028 5.097 8.806 5.533 9.607 C12.211 21.97 18.606 34.488 25 47 C25.41 47.802 25.82 48.604 26.242 49.43 C28.139 53.151 30 56.888 31.836 60.64 C33.043 63.087 34.266 65.524 35.49 67.962 C36.718 70.416 37.933 72.876 39.146 75.337 C39.752 76.561 40.363 77.783 40.979 79.002 C41.844 80.717 42.69 82.443 43.535 84.168 C44.034 85.171 44.533 86.174 45.047 87.208 C46.116 90.339 46.033 91.89 45 95 C43.645 96.414 43.645 96.414 41.812 97.625 C39.047 99.535 36.371 101.483 33.777 103.617 C16.243 118 16.243 118 9 118 C8.93 117.729 8.93 117.729 8.576 116.358 C5.353 104.053 1.504 92.488 -4.024 81.025 C-4.94 79.124 -5.83 77.213 -6.715 75.297 C-21.51 44.245 -21.51 44.245 -32 39 C-31.399 35.894 -30.423 33.936 -28.5 31.438 C-26.764 29.171 -25.925 27.775 -25 25 C-36.918 30.543 -41.409 39.982 -47.366 51.076 C-57.974 70.813 -70.599 86.227 -88.75 99.562 C-89.512 100.129 -90.275 100.695 -91.06 101.279 C-91.778 101.786 -92.495 102.294 -93.234 102.816 C-93.55 103.04 -93.55 103.04 -95.147 104.174 C-97.531 105.237 -98.597 104.915 -101 104 C-110.031 98.187 -117.499 90.731 -120 80 C-119.464 73.488 -114.748 69.409 -110.039 65.281 C-109.387 64.735 -108.735 64.188 -108.062 63.625 C-91.342 49.302 -87.915 29.398 -84.394 8.743 C-84.241 7.88 -84.088 7.018 -83.93 6.129 C-83.864 5.743 -83.864 5.743 -83.531 3.787 C-83.356 3.198 -83.18 2.608 -83 2 C-82.34 1.67 -81.68 1.34 -81 1 C-79.762 1.433 -78.525 1.866 -77.25 2.312 C-66.365 6.111 -54.674 6.389 -43.25 6.375 C-42.598 6.375 -42.598 6.375 -39.297 6.372 C-27.821 6.232 -16.748 5.132 -6.215 0.301 C-3 -1 -3 -1 0 0 Z " fill="#F2A93D" transform="translate(270,417)"/>
<path d="M0 0 C0.66 0 1.32 0 2 0 C2.795 1.094 3.534 2.228 4.25 3.375 C10.482 11.989 21.024 17.67 30.109 22.844 C32 24 32 24 34 26 C34.09 27.835 34.169 29.672 34.176 31.51 C34.213 38.662 34.979 44.159 38.5 50.438 C42.957 58.436 44.093 64.961 41.719 73.848 C37.811 85.551 30.417 92.67 19.609 98.301 C9.464 103.077 -0.002 103.406 -11 103 C-10.443 105.249 -9.87 107.493 -9.281 109.734 C-7.792 115.485 -6.448 121.068 -6 127 C-7 128 -7 128 -9.938 128.25 C-16.914 128.135 -24.076 126.073 -29 121 C-32.048 116.854 -32.404 113.655 -32.562 108.562 C-32.725 103.682 -32.936 99.477 -35 95 C-36.891 93.875 -36.891 93.875 -39 93 C-40.922 91.125 -40.922 91.125 -42.75 89 C-43.057 88.649 -43.057 88.649 -44.609 86.875 C-46 85 -46 85 -46 83 C-50.569 81.887 -54.919 80.969 -59.625 80.75 C-63.842 80.287 -66.371 79.018 -69.422 76.074 C-73.181 71.133 -76.255 65.075 -75.734 58.793 C-74.564 54.342 -72.179 51.931 -68.625 49.125 C-65.23 47.67 -63.521 47.973 -60 49 C-57.314 50.272 -55.288 51.721 -53.156 53.789 C-47.857 58.905 -47.857 58.905 -44.93 59.23 C-43 58.938 -43 58.938 -40 58 C-40.38 54.2 -40.793 51.383 -42.625 48 C-44.464 43.987 -44.398 42.193 -43 38 C-38.541 32.509 -31.96 28.886 -26.013 25.196 C-22.477 23 -19.196 20.667 -16 18 C-16.875 25.625 -16.875 25.625 -18 29 C-17.518 28.639 -17.036 28.278 -16.539 27.906 C-15.907 27.442 -15.276 26.978 -14.625 26.5 C-13.999 26.036 -13.372 25.572 -12.727 25.094 C-11 24 -11 24 -9 24 C-8.722 23.435 -8.443 22.871 -8.156 22.289 C-7.389 20.771 -6.598 19.265 -5.781 17.773 C-2.661 11.932 -0.934 6.552 0 0 Z " fill="#FFFFFF" transform="translate(254,171)"/>
<path d="M0 0 C0.534 0.41 1.067 0.82 1.617 1.242 C1.905 1.437 1.905 1.437 3.359 2.422 C9.846 7.294 15.872 15.278 17.617 23.242 C17.016 23.482 16.414 23.722 15.795 23.97 C-23.283 39.669 -59.552 60.347 -92.008 87.297 C-94.094 89.006 -96.211 90.644 -98.383 92.242 C-105.254 79.531 -111.362 66.218 -107.32 51.617 C-99.889 32.391 -76.5 19.29 -59.383 10.242 C-58.733 9.898 -58.084 9.553 -57.415 9.198 C-42.503 1.421 -16.152 -10.409 0 0 Z " fill="#0D1B3E" transform="translate(242.3828125,97.7578125)"/>
<path d="M0 0 C3.425 0.604 3.929 0.915 6.324 3.766 C7.124 4.919 7.911 6.081 8.688 7.25 C9.09 7.824 9.493 8.397 9.908 8.988 C14.212 15.317 14.212 15.317 14 19 C12.661 20.682 11.3 22.352 9.831 23.921 C6.279 27.955 3.556 32.594 0.688 37.125 C0.055 38.101 -0.577 39.077 -1.229 40.082 C-1.529 40.554 -1.529 40.554 -3.051 42.945 C-3.594 43.796 -4.137 44.647 -4.697 45.524 C-6.909 49.727 -7.287 52.953 -6.062 57.5 C-5.268 60.755 -4.603 63.628 -5 67 C-7 70 -7 70 -9.312 70.66 C-10.199 70.793 -11.086 70.926 -12 71.062 C-16.794 71.794 -16.794 71.794 -19 74 C-19.195 75.945 -19.195 75.945 -19.125 78.125 C-19.084 79.404 -19.042 80.683 -19 82 C-24.596 82.289 -28.187 82.209 -33 79 C-36.163 75.794 -38.827 72.841 -39.258 68.25 C-38.694 61.145 -33.552 54.295 -28.688 49.25 C-26 47 -26 47 -24 47 C-23.792 46.007 -23.585 45.015 -23.371 43.992 C-19.491 26.446 -11.164 13.806 0 0 Z " fill="#FFFFFF" transform="translate(153,332)"/>
<path d="M0 0 C2.527 0.535 2.527 0.535 4.336 2.914 C4.873 3.965 5.411 5.015 5.965 6.098 C11.692 16.511 16.524 20.675 27.527 25.535 C24.945 28.625 22.038 29.751 18.34 31.223 C17.253 31.66 16.166 32.097 15.047 32.547 C14.215 32.873 13.384 33.199 12.527 33.535 C13.527 34.535 13.527 34.535 16.688 34.633 C17.975 34.621 19.263 34.61 20.59 34.598 C21.88 34.589 23.171 34.58 24.5 34.57 C25 34.565 25 34.565 27.527 34.535 C25.326 37.014 23.464 38.147 20.34 39.223 C19.624 39.474 18.909 39.725 18.172 39.984 C17.629 40.166 17.086 40.348 16.527 40.535 C18.247 42.255 20.68 41.744 23.027 41.848 C30.383 42.416 35.544 44.422 41.527 48.66 C44.376 52.754 44.423 56.642 44.527 61.535 C38.836 64.381 28.086 64.235 22.027 62.848 C7.424 57.372 -0.809 47.901 -7.214 33.889 C-10.172 27.2 -12.85 20.907 -11.473 13.535 C-5.834 1.263 -5.834 1.263 0 0 Z " fill="#0D1B3E" transform="translate(142.47265625,503.46484375)"/>
<path d="M0 0 C0.671 1.456 1.337 2.915 2 4.375 C2.371 5.187 2.743 5.999 3.125 6.836 C4 9 4 9 4 11 C3.191 11.341 2.381 11.683 1.548 12.035 C-13.565 18.434 -28.488 24.897 -42.871 32.837 C-45.058 34.031 -47.261 35.188 -49.473 36.336 C-57.594 40.551 -65.47 44.993 -73.211 49.883 C-75.222 51.139 -77.248 52.368 -79.277 53.594 C-87.948 58.835 -96.476 64.222 -104.863 69.906 C-105.898 70.597 -106.934 71.288 -108 72 C-108.901 72.608 -109.802 73.217 -110.73 73.844 C-111.479 74.225 -112.228 74.607 -113 75 C-113.99 74.67 -114.98 74.34 -116 74 C-116.938 71.938 -116.938 71.938 -117 69 C-112.991 63.882 -107.533 59.835 -102.375 55.938 C-101.648 55.386 -100.92 54.834 -100.171 54.266 C-27.728 0 -27.728 0 0 0 Z " fill="#F2A93D" transform="translate(261,121)"/>
<path d="M0 0 C1.875 1.5 1.875 1.5 3 3 C3 3.99 3 4.98 3 6 C2.443 6.219 1.886 6.438 1.312 6.664 C-7.907 10.495 -14.502 16.357 -21.729 23.123 C-26.508 27.588 -31.426 31.87 -36.395 36.121 C-39.526 38.812 -42.602 41.537 -45.594 44.383 C-46.168 44.927 -46.742 45.472 -47.334 46.033 C-48.406 47.057 -49.47 48.089 -50.525 49.131 C-54.132 52.575 -57.4 54.287 -62 56 C-66.519 52.946 -68.305 50.173 -70 45 C-70.482 41.491 -70.643 39.857 -68.5 37 C-67.095 35.876 -65.673 34.771 -64.199 33.738 C-58.683 29.829 -54.914 25.492 -51 20 C-50.49 19.296 -49.979 18.592 -49.453 17.867 C-48.29 16.253 -47.143 14.628 -46 13 C-44 15 -44 15 -43.77 17.094 C-43.777 17.491 -43.777 17.491 -43.812 19.5 C-43.819 20.294 -43.825 21.088 -43.832 21.906 C-44 24 -44 24 -45 26 C-44.34 26 -43.68 26 -43 26 C-42.83 25.42 -42.66 24.84 -42.484 24.242 C-40.929 19.23 -39.347 15.08 -36 11 C-35.01 11 -34.02 11 -33 11 C-32.754 10.239 -32.508 9.479 -32.254 8.695 C-29.877 3.587 -24.65 1.182 -19.652 -1.047 C-12.472 -3.658 -6.731 -4.13 0 0 Z " fill="#0D1B3E" transform="translate(359,509)"/>
<path d="M0 0 C4.432 2.051 7.721 4.997 11.375 8.188 C12.022 8.74 12.669 9.292 13.336 9.861 C17.153 13.175 20.523 16.599 23.687 20.543 C26.334 23.48 29.814 24.549 33.426 25.922 C41.411 28.998 45.961 31.901 49.988 39.625 C51.876 44.057 52.461 47.974 51.375 52.75 C49.585 55.68 47.922 57.182 45 59 C41.188 59.75 41.188 59.75 38 60 C37.67 59.34 37.34 58.68 37 58 C37.495 57.67 37.99 57.34 38.5 57 C40.439 54.414 40.531 52.19 40.438 49.008 C39.713 45.685 37.568 44.055 35 42 C34.67 42.165 34.67 42.165 33 43 C33.516 44.052 34.031 45.104 34.562 46.188 C35.976 49.476 36.32 51.547 35 55 C34.67 55.165 34.67 55.165 33 56 C31.724 55.091 30.454 54.172 29.188 53.25 C28.834 52.995 28.834 52.995 27.043 51.703 C23.644 48.87 22.153 46.416 20.625 42.25 C17.578 35.957 10.841 33.287 5 30 C3.032 28.786 1.073 27.557 -0.875 26.312 C-1.755 25.75 -2.636 25.188 -3.543 24.609 C-6.767 22.497 -9.892 20.279 -13 18 C-12.567 17.515 -12.567 17.515 -10.375 15.062 C-6.416 10.455 -2.723 5.447 0 0 Z " fill="#FFFFFF" transform="translate(297,342)"/>
<path d="M0 0 C2.339 0.287 4.674 0.619 7 1 C8.65 4.074 9.131 5.485 8.256 8.921 C8.023 9.459 8.023 9.459 6.844 12.18 C6.59 12.777 6.337 13.374 6.076 13.989 C5.234 15.959 4.368 17.916 3.5 19.875 C2.905 21.252 2.311 22.63 1.719 24.008 C-3.104 35.169 -8.096 46.261 -13.152 57.318 C-17.743 67.36 -17.743 67.36 -19.672 71.941 C-19.943 72.584 -20.214 73.226 -20.493 73.888 C-21.242 75.673 -21.982 77.462 -22.723 79.25 C-24 82 -24 82 -26 84 C-29.625 83.625 -29.625 83.625 -33 83 C-34.49 77.587 -33.212 74.089 -30.941 69.184 C-30.606 68.426 -30.27 67.668 -29.924 66.887 C-28.817 64.398 -27.69 61.918 -26.562 59.438 C-25.791 57.711 -25.021 55.983 -24.252 54.255 C-23.058 51.573 -21.863 48.891 -20.663 46.212 C-17.837 39.906 -15.069 33.578 -12.34 27.23 C-11.972 26.374 -11.603 25.517 -11.224 24.635 C-9.796 21.312 -8.37 17.988 -6.945 14.664 C-5.965 12.382 -4.983 10.101 -4 7.82 C-3.709 7.14 -3.418 6.459 -3.119 5.758 C-1.114 1.114 -1.114 1.114 0 0 Z " fill="#F2A93D" transform="translate(100,461)"/>
<path d="M0 0 C3 0.125 3 0.125 6 1 C7.32 2.695 7.32 2.695 8 5 C7.272 7.668 7.272 7.668 5.879 10.758 C5.363 11.925 4.846 13.091 4.314 14.293 C3.731 15.571 3.147 16.848 2.562 18.125 C1.97 19.45 1.38 20.775 0.791 22.101 C-0.466 24.925 -1.731 27.745 -3.003 30.562 C-6.054 37.329 -9.036 44.126 -12.027 50.919 C-12.977 53.072 -13.93 55.224 -14.885 57.375 C-15.486 58.732 -16.087 60.089 -16.688 61.445 C-16.974 62.091 -17.26 62.738 -17.556 63.403 C-19.793 68.474 -21.904 73.59 -23.957 78.738 C-25 81 -25 81 -27 83 C-30 83.25 -30 83.25 -33 83 C-33.66 82.34 -34.32 81.68 -35 81 C-34.904 73.962 -31.518 67.908 -28.625 61.625 C-27.806 59.815 -26.986 58.006 -26.168 56.196 C-25.329 54.341 -24.486 52.487 -23.643 50.633 C-21.154 45.13 -18.734 39.596 -16.312 34.062 C-14.544 30.041 -12.772 26.02 -11 22 C-10.565 21.011 -10.129 20.023 -9.681 19.004 C-8.438 16.188 -7.189 13.375 -5.938 10.562 C-5.567 9.721 -5.197 8.88 -4.816 8.014 C-4.473 7.247 -4.13 6.481 -3.777 5.691 C-3.481 5.023 -3.184 4.355 -2.879 3.666 C-2 2 -2 2 0 0 Z " fill="#F2A93D" transform="translate(76,452)"/>
<path d="M0 0 C0.825 0.33 0.825 0.33 5 2 C4.408 7.502 2.461 11.957 0.203 16.938 C-0.182 17.803 -0.568 18.669 -0.965 19.561 C-2.22 22.377 -3.485 25.188 -4.75 28 C-6.487 31.886 -8.22 35.773 -9.953 39.66 C-10.385 40.626 -10.816 41.592 -11.261 42.587 C-13.898 48.497 -16.497 54.422 -19.047 60.371 C-19.348 61.072 -19.648 61.773 -19.958 62.495 C-21.077 65.105 -22.194 67.716 -23.302 70.331 C-24.04 72.075 -24.786 73.817 -25.531 75.559 C-25.939 76.521 -26.347 77.483 -26.768 78.474 C-27.957 80.912 -29.296 82.898 -31 85 C-32.65 84.67 -34.3 84.34 -36 84 C-35.401 78.684 -33.628 74.391 -31.457 69.57 C-31.097 68.755 -30.736 67.939 -30.365 67.099 C-29.187 64.438 -28 61.781 -26.812 59.125 C-25.997 57.287 -25.181 55.449 -24.367 53.61 C-23.126 50.81 -21.885 48.01 -20.641 45.212 C-18 39.27 -15.385 33.317 -12.797 27.352 C-12.475 26.612 -12.154 25.872 -11.823 25.11 C-10.608 22.312 -9.393 19.514 -8.183 16.714 C-7.366 14.824 -6.545 12.935 -5.723 11.047 C-5.266 9.993 -4.81 8.94 -4.34 7.854 C-3.052 5.111 -1.608 2.567 0 0 Z " fill="#F2A93D" transform="translate(127,467)"/>
</svg>
